<svg width="1920" height="1080" viewBox="0 0 1440 810" xmlns="http://www.w3.org/2000/svg" xmlns:xlink="http://www.w3.org/1999/xlink" overflow="hidden"><defs><clipPath id="a83de1b861"><path d="M567.922 301 685 301 685 423 567.922 423Z"/></clipPath><clipPath id="49c8d63bc1"><path d="M583 361.066 703.484 361.066 703.484 482.305 583 482.305Z"/></clipPath><clipPath id="d2e630b4b1"><path d="M758 104.305 781 104.305 781 161 758 161Z"/></clipPath><clipPath id="4828c7dd2c"><path d="M867 299 922.559 299 922.559 322.949 867 322.949Z"/></clipPath></defs><g clip-path="url(#a83de1b861)"><path d="M567.996 345.312 622.488 422.68 684.129 379.238 629.637 301.875 567.996 345.312" fill="#EBB88A"/></g><path d="M685.035 196.145C688.363 202.906 681.387 223.168 681.387 223.168 681.387 223.168 671.859 242.992 669.844 244.891 668.184 246.457 664.699 254.473 664.613 259.098L669.859 255.297C669.895 255.195 669.879 255.074 669.879 255.074L672.918 252.93 673.062 252.828 673.094 252.883 706.812 230 706.812 230.004 763.816 190.113C769.406 186.191 777.176 187.496 781.109 193.078L781.254 193.281C785.219 198.91 783.871 206.691 778.242 210.652L724.086 248.824 725.953 253.258 791.461 207.094C797.176 203.062 805.078 204.434 809.109 210.156L809.254 210.363C813.285 216.082 811.918 223.992 806.195 228.02L743.664 272.09 745.539 276.523 798.871 238.934C804.711 234.82 812.773 236.219 816.883 242.059L817.039 242.27C821.148 248.109 819.75 256.176 813.91 260.285L757.145 300.293 758.805 304.234 803.934 272.434C809.535 268.484 817.277 269.828 821.227 275.43L821.371 275.633C825.316 281.238 823.977 288.984 818.371 292.93L768.742 327.906 768.73 327.891 714.922 365.453C705.422 372.086 694.695 376.773 683.375 379.238L681.832 379.574 628.062 303.234C628.062 303.234 632.723 273.91 633.359 264.832 633.996 255.758 633.375 249.324 646.211 231.492 655.762 218.227 659.918 202.566 661.414 195.426 662.09 192.211 664.23 189.477 667.219 188.125 675.715 184.273 682.246 190.469 685.035 196.145" fill="#EBB88A"/><g clip-path="url(#49c8d63bc1)"><path d="M583.328 414.277 649.062 482.344 703.297 429.941 637.559 361.875 583.328 414.277" fill="#EBB88A"/></g><path d="M657.227 243.711C665.031 238.605 672.434 243.719 676.062 248.898 680.391 255.07 676.609 276.164 676.609 276.164 676.609 276.164 670.246 297.215 668.547 299.402 667.141 301.207 664.934 309.66 665.562 314.242L670.16 309.688C670.176 309.574 670.18 309.5 670.18 309.5L672.891 306.953 673.227 306.629 673.008 306.77 702.488 279.281 702.488 279.285 752.797 230.992C757.723 226.258 765.625 226.328 770.367 231.242L770.59 231.379C771.594 232.422 772.422 233.543 772.992 234.785L773.059 234.734C775.262 239.465 774.445 245.43 770.504 249.238L722.961 295.176 723.012 295.133 722.965 295.176 725.195 298.957 782.82 243.27C787.852 238.406 795.711 238.863 800.574 243.898L800.75 244.082C805.609 249.113 805.648 256.832 800.617 261.691L745.598 314.855 748.074 318.152 795.25 273.805C800.387 268.844 808.652 268.648 813.609 273.785L813.793 273.973C815.84 276.094 816.898 278.836 817.215 281.555L817.289 281.559C817.801 285.477 816.602 289.781 813.539 292.742L763.594 341.004 763.176 340.418 764.039 340.57 765.41 344.191 805.113 305.828C810.043 301.062 818.277 301.152 823.043 306.082L823.215 306.262C824.879 307.98 825.816 310.164 826.293 312.336L826.316 312.332C827.27 316.445 826.164 321.105 822.906 324.254L779.5 366.195 779.355 366.336 779.125 366.098 731.672 411.543C723.305 419.559 713.402 425.867 702.59 430.043L702.418 430.117 701.047 430.68 659.766 387.938 659.723 387.895 636.184 363.52C636.184 363.52 636.301 333.809 635.535 324.742 634.77 315.676 633.18 309.402 643.121 289.809 650.52 275.23 652.223 259.113 652.605 251.824 652.781 248.547 654.48 245.512 657.227 243.711" fill="#EBB88A"/><path d="M802.66 313.113 815.242 326.676 818.562 323.594C823.16 319.328 824.102 312.863 820.66 309.152L820.535 309.02C817.094 305.309 810.582 305.766 805.98 310.035L802.66 313.113" fill="#F2C8AC"/><path d="M792.969 280.691 805.551 294.254 808.871 291.172C813.469 286.91 814.406 280.441 810.973 276.734L810.844 276.598C807.406 272.891 800.891 273.344 796.289 277.609L792.969 280.691" fill="#F2C8AC"/><path d="M780.188 250.172 792.766 263.734 796.086 260.652C800.684 256.387 801.625 249.922 798.188 246.211L798.062 246.078C794.621 242.367 788.105 242.824 783.508 247.09L780.188 250.172" fill="#F2C8AC"/><path d="M750.789 237.656 763.367 251.219 766.688 248.137C771.289 243.871 772.227 237.406 768.789 233.695L768.664 233.562C765.223 229.852 758.707 230.309 754.109 234.574L750.789 237.656" fill="#F2C8AC"/><path d="M656.047 244.629C656.312 244.672 662.945 245.84 660.215 261.695 658.238 273.152 653.789 267.59 651.359 263.371 652.121 258.633 652.461 254.59 652.605 251.824 652.754 249.047 654.004 246.453 656.047 244.629" fill="#F2C8AC"/><path d="M627.055 189.645 626.926 189.699C623.336 191.133 619.27 189.383 617.844 185.793L602.441 147.121C601.016 143.531 602.766 139.465 606.348 138.035L606.48 137.984C610.066 136.555 614.133 138.301 615.559 141.891L630.961 180.566C632.391 184.152 630.641 188.219 627.055 189.645" fill="#E5E5E5"/><path d="M694.316 160.23 694.176 160.254C690.371 160.898 686.766 158.328 686.125 154.52L679.223 113.465C678.582 109.66 681.148 106.055 684.957 105.41L685.098 105.387C688.902 104.75 692.508 107.312 693.148 111.125L700.051 152.18C700.688 155.988 698.121 159.594 694.316 160.23" fill="#E5E5E5"/><g clip-path="url(#d2e630b4b1)"><path d="M765.66 159.965 765.508 159.945C761.305 159.32 758.352 155.723 758.918 151.902L765 110.719C765.566 106.898 769.434 104.309 773.637 104.93L773.789 104.949C777.996 105.574 780.945 109.172 780.383 112.992L774.297 154.176C773.73 157.996 769.867 160.586 765.66 159.965" fill="#E5E5E5"/></g><path d="M835.695 180.637 835.574 180.539C832.316 177.809 831.684 173.195 834.164 170.234L860.887 138.328C863.367 135.363 868.02 135.18 871.277 137.91L871.395 138.008C874.652 140.738 875.285 145.348 872.809 148.312L846.082 180.223C843.602 183.18 838.949 183.367 835.695 180.637" fill="#E5E5E5"/><path d="M865.977 235.758 865.934 235.609C864.746 231.527 866.785 227.344 870.488 226.262L910.445 214.605C914.148 213.527 918.117 215.961 919.309 220.043L919.352 220.191C920.543 224.27 918.504 228.453 914.797 229.535L874.844 241.188C871.137 242.273 867.168 239.84 865.977 235.758" fill="#E5E5E5"/><g clip-path="url(#4828c7dd2c)"><path d="M867.664 306.234 867.695 306.078C868.438 301.895 872.121 299.047 875.922 299.727L916.895 307.02C920.699 307.695 923.176 311.637 922.43 315.824L922.402 315.977C921.656 320.164 917.973 323.008 914.172 322.328L873.195 315.035C869.398 314.359 866.922 310.418 867.664 306.234" fill="#E5E5E5"/></g><path d="M834.023 368.637 834.098 368.5C836.145 364.773 840.547 363.262 843.93 365.117L880.41 385.156C883.793 387.016 884.879 391.543 882.832 395.27L882.758 395.406C880.711 399.133 876.312 400.645 872.93 398.789L836.445 378.746C833.062 376.887 831.98 372.359 834.023 368.637" fill="#E5E5E5"/><path d="M603.109 395.164 597.977 387.879 603.109 395.164" fill="#DDC7AF"/><path d="M603.109 395.164 597.977 387.879 629.176 358.855 630.238 334.973 636.109 343.457 636.184 363.207 603.109 395.164" fill="#CB905F"/><path d="M603.109 395.164 636.184 363.207 636.184 363.52 603.109 395.164" fill="#CB905F"/><path d="M806.711 270.746C806.414 270.504 806.113 270.273 805.797 270.066 806.465 270.125 807.125 270.25 807.773 270.418 807.418 270.508 807.062 270.621 806.711 270.746" fill="#CB905F"/><path d="M636.109 343.453 630.238 334.973C630.137 329.945 629.988 325.414 629.762 322.719 629.398 318.453 628.855 314.805 629.418 310.102 629.566 308.863 629.789 307.555 630.113 306.141L635.082 313.199C634.719 317.344 635.191 320.719 635.52 324.586 635.52 324.598 635.523 324.605 635.523 324.613 635.523 324.621 635.523 324.625 635.523 324.633 635.523 324.645 635.531 324.664 635.531 324.68 635.531 324.684 635.531 324.684 635.531 324.684 635.535 324.703 635.535 324.719 635.535 324.742 635.539 324.746 635.539 324.754 635.539 324.762 635.539 324.762 635.539 324.762 635.539 324.766 635.539 324.77 635.539 324.777 635.539 324.781 635.539 324.781 635.539 324.785 635.539 324.785 635.539 324.797 635.543 324.801 635.543 324.809 635.543 324.809 635.543 324.812 635.543 324.812 635.543 324.816 635.543 324.82 635.543 324.824 635.543 324.828 635.543 324.832 635.543 324.832 635.543 324.84 635.547 324.844 635.547 324.852 635.547 324.852 635.547 324.852 635.547 324.855 635.547 324.859 635.547 324.871 635.547 324.875 635.547 324.879 635.547 324.879 635.547 324.883 635.547 324.887 635.551 324.891 635.551 324.895 635.551 324.898 635.551 324.898 635.551 324.902 635.551 324.906 635.551 324.91 635.551 324.914 635.551 324.918 635.551 324.922 635.551 324.926 635.551 324.93 635.551 324.941 635.555 324.945 635.555 324.945 635.555 324.949 635.555 324.949 635.555 324.953 635.555 324.961 635.555 324.965 635.555 324.965 635.555 324.969 635.555 324.973 635.555 324.977 635.555 324.984 635.555 324.988 635.555 324.988 635.559 324.992 635.559 324.996 635.559 325 635.559 325.008 635.559 325.012 635.559 325.016 635.559 325.02 635.559 325.023 635.559 325.027 635.559 325.031 635.559 325.035 635.559 325.035 635.559 325.039 635.559 325.039 635.562 325.043 635.562 325.051 635.562 325.055 635.562 325.059 635.562 325.059 635.562 325.062 635.562 325.07 635.562 325.078 635.562 325.086 635.562 325.086 635.562 325.09 635.562 325.09 635.562 325.094 635.566 325.098 635.566 325.102 635.566 325.105 635.566 325.109 635.566 325.117 635.566 325.121 635.566 325.125 635.566 325.129 635.566 325.129 635.566 325.133 635.566 325.133 635.566 325.141 635.566 325.152 635.57 325.156L635.57 325.16C635.867 329.094 636.027 336.32 636.109 343.453" fill="#CB905F"/><path d="M635.082 313.199 630.113 306.141C631.176 301.5 633.309 295.742 637.344 287.785 641.945 278.715 644.344 269.059 645.59 261.293 645.625 261.082 645.656 260.883 645.688 260.676 645.762 260.188 645.832 259.707 645.898 259.238 645.938 258.973 645.973 258.715 646.008 258.453 646.066 258.035 646.117 257.625 646.168 257.227 646.195 256.992 646.227 256.758 646.25 256.531 646.32 255.945 646.383 255.371 646.438 254.824 646.449 254.688 646.461 254.57 646.473 254.438 646.516 253.996 646.555 253.559 646.59 253.141 646.605 252.957 646.613 252.777 646.629 252.598 646.66 252.238 646.672 251.891 646.699 251.551 646.707 251.402 646.695 251.25 646.707 251.102 646.734 250.645 646.738 250.207 646.738 249.801L646.738 249.797C646.738 249.422 646.852 249.043 646.91 248.676 646.934 248.539 647.012 248.406 647.039 248.27 647.086 248.043 647.137 247.816 647.199 247.594 647.242 247.422 647.297 247.258 647.352 247.09 647.41 246.914 647.473 246.734 647.543 246.562 647.613 246.375 647.691 246.191 647.773 246.008 647.836 245.871 647.902 245.742 647.973 245.609 648.074 245.402 648.184 245.195 648.297 245L648.434 244.793C648.938 243.988 649.551 243.254 650.27 242.613L650.27 242.609C650.641 242.281 651.031 241.969 651.449 241.691 653.73 240.195 655.977 239.578 658.105 239.578 660.547 239.578 662.832 240.395 664.836 241.641 664.52 241.617 664.203 241.598 663.883 241.598 661.754 241.598 659.508 242.219 657.227 243.711 655.152 245.07 653.676 247.129 653.004 249.469 652.988 249.516 652.973 249.566 652.961 249.613 652.898 249.836 652.836 250.066 652.793 250.293 652.762 250.43 652.695 250.562 652.676 250.699 652.613 251.066 652.496 251.441 652.496 251.82 652.496 252.223 652.504 252.668 652.469 253.125 652.461 253.27 652.504 253.422 652.492 253.574 652.469 253.91 652.445 254.258 652.418 254.617 652.398 254.801 652.387 254.98 652.371 255.164 652.332 255.582 652.297 256.016 652.25 256.461 652.238 256.594 652.23 256.715 652.215 256.848 652.16 257.395 652.098 257.969 652.027 258.551 652.004 258.781 651.969 259.016 651.941 259.246 651.895 259.648 651.84 260.059 651.785 260.477 651.75 260.734 651.715 260.996 651.676 261.262 651.609 261.73 651.535 262.207 651.461 262.695 651.434 262.902 651.398 263.105 651.367 263.316 650.223 270.414 648.129 279.094 644.258 287.461 644.25 287.477 644.242 287.492 644.238 287.508 644.234 287.512 644.234 287.512 644.234 287.516 644.227 287.535 644.215 287.551 644.207 287.566 644.191 287.602 644.176 287.637 644.164 287.672 644.16 287.676 644.16 287.68 644.16 287.68 644.152 287.695 644.141 287.707 644.137 287.723 644.133 287.723 644.133 287.727 644.133 287.73 644.125 287.746 644.117 287.762 644.113 287.773 644.109 287.777 644.109 287.781 644.109 287.781 644.094 287.816 644.074 287.852 644.059 287.887 644.059 287.891 644.055 287.895 644.055 287.898 644.047 287.91 644.043 287.922 644.039 287.934 644.035 287.938 644.035 287.941 644.031 287.945 644.027 287.961 644.02 287.973 644.016 287.984 644.012 287.988 644.012 287.992 644.004 288 643.996 288.012 643.992 288.027 643.984 288.043 643.984 288.043 643.984 288.047 643.98 288.051 643.977 288.066 643.969 288.078 643.961 288.098 643.957 288.105 643.957 288.109 643.953 288.117 643.949 288.125 643.945 288.137 643.934 288.145 643.934 288.152 643.93 288.164 643.926 288.168 643.922 288.176 643.918 288.184 643.914 288.195 643.91 288.203 643.906 288.207 643.902 288.215 643.898 288.227 643.895 288.242 643.891 288.25 643.887 288.254 643.883 288.258 643.883 288.266 643.875 288.281 643.863 288.293 643.855 288.312 643.855 288.316 643.852 288.324 643.848 288.332 643.844 288.34 643.84 288.352 643.836 288.359 643.832 288.367 643.828 288.375 643.824 288.383 643.82 288.391 643.816 288.402 643.812 288.41 643.809 288.418 643.805 288.422 643.805 288.43 643.793 288.438 643.789 288.453 643.785 288.465 643.781 288.469 643.777 288.473 643.777 288.48 643.77 288.492 643.762 288.508 643.758 288.527 643.754 288.531 643.75 288.543 643.746 288.547 643.742 288.555 643.738 288.562 643.734 288.57 643.73 288.578 643.723 288.59 643.719 288.598 643.715 288.605 643.711 288.613 643.707 288.621 643.703 288.629 643.699 288.637 643.695 288.645 643.695 288.656 643.688 288.664 643.684 288.672 643.68 288.68 643.68 288.688 643.676 288.695 643.668 288.707 643.66 288.727 643.656 288.738 643.648 288.746 643.645 288.754 643.641 288.762 643.637 288.77 643.633 288.777 643.629 288.785 643.625 288.797 643.621 288.805 643.617 288.812 643.613 288.82 643.609 288.828 643.605 288.836 643.602 288.844 643.598 288.852 643.594 288.859 643.59 288.871 643.586 288.879 643.578 288.887 643.574 288.895 643.574 288.902 643.57 288.906 643.562 288.922 643.555 288.938 643.547 288.953 643.543 288.961 643.539 288.969 643.535 288.977 643.531 288.984 643.527 288.992 643.527 289 643.523 289.012 643.52 289.016 643.516 289.027 643.508 289.035 643.504 289.043 643.5 289.051 643.496 289.055 643.492 289.062 643.488 289.07 643.484 289.086 643.477 289.094 643.473 289.105 643.473 289.109 643.469 289.113 643.465 289.121 643.457 289.133 643.453 289.152 643.445 289.168 643.438 289.172 643.434 289.18 643.434 289.184 643.426 289.195 643.422 289.203 643.418 289.219 643.414 289.223 643.41 289.23 643.406 289.238 643.402 289.246 643.398 289.254 643.395 289.266 643.391 289.27 643.387 289.277 643.383 289.289 643.379 289.297 643.375 289.305 643.367 289.316 643.363 289.32 643.359 289.328 643.359 289.336 643.352 289.348 643.348 289.359 643.34 289.371 643.336 289.383 643.332 289.391 643.328 289.398 643.324 289.406 643.316 289.418 643.312 289.43 643.309 289.438 643.309 289.441 643.305 289.449 643.297 289.457 643.293 289.469 643.285 289.477 643.281 289.484 643.277 289.492 643.277 289.5 643.273 289.508 643.266 289.52 643.262 289.527 643.258 289.535 643.258 289.539 643.254 289.547 643.246 289.559 643.242 289.578 643.234 289.59 643.227 289.594 643.223 289.602 643.223 289.605 643.215 289.617 643.211 289.629 643.203 289.645 643.199 289.652 643.199 289.656 643.195 289.66 643.191 289.672 643.184 289.68 643.18 289.691 643.18 289.699 643.176 289.703 643.172 289.711 643.168 289.723 643.156 289.734 643.152 289.746 643.148 289.75 643.148 289.754 643.145 289.758 643.137 289.773 643.129 289.793 643.121 289.809 643.113 289.824 643.105 289.84 643.098 289.859 643.094 289.867 643.094 289.871 643.086 289.875 643.078 289.887 643.074 289.898 643.066 289.91 643.066 289.922 643.062 289.926 643.059 289.93 643.051 289.945 643.047 289.961 643.039 289.977 643.035 289.98 643.031 289.984 643.031 289.992 643.023 290.008 643.012 290.02 643.008 290.031 643.004 290.035 643 290.039 643 290.047 642.996 290.055 642.988 290.07 642.984 290.078 642.98 290.086 642.977 290.094 642.973 290.102 642.969 290.113 642.961 290.133 642.953 290.145 642.945 290.152 642.941 290.16 642.938 290.168 642.934 290.176 642.93 290.184 642.926 290.191 642.922 290.203 642.918 290.211 642.914 290.223 642.906 290.23 642.902 290.238 642.898 290.25 642.895 290.254 642.895 290.262 642.891 290.266 642.883 290.285 642.871 290.297 642.867 290.312 642.859 290.32 642.855 290.328 642.852 290.344 642.848 290.352 642.844 290.355 642.844 290.363 642.836 290.371 642.832 290.383 642.828 290.391 642.828 290.395 642.828 290.395 642.828 290.395 642.809 290.434 642.785 290.473 642.766 290.516 642.766 290.516 642.762 290.52 642.762 290.52 642.73 290.578 642.707 290.629 642.684 290.68 642.684 290.68 642.68 290.684 642.68 290.684 637.391 301.262 635.551 307.867 635.082 313.199" fill="#CB905F"/><path d="M635.57 325.16 635.57 325.156C635.57 325.16 635.57 325.16 635.57 325.16M635.566 325.133C635.566 325.133 635.566 325.129 635.566 325.129 635.566 325.129 635.566 325.133 635.566 325.133M635.566 325.117C635.566 325.109 635.566 325.105 635.566 325.102 635.566 325.105 635.566 325.109 635.566 325.117M635.562 325.09C635.562 325.09 635.562 325.086 635.562 325.086 635.562 325.086 635.562 325.09 635.562 325.09M635.562 325.062C635.562 325.059 635.562 325.059 635.562 325.055 635.562 325.059 635.562 325.059 635.562 325.062M635.559 325.039C635.559 325.039 635.559 325.035 635.559 325.035 635.559 325.035 635.559 325.039 635.559 325.039M635.559 325.023C635.559 325.02 635.559 325.016 635.559 325.012 635.559 325.016 635.559 325.02 635.559 325.023M635.559 324.996C635.559 324.992 635.555 324.988 635.555 324.988 635.555 324.988 635.559 324.992 635.559 324.996M635.555 324.973C635.555 324.969 635.555 324.965 635.555 324.965 635.555 324.969 635.555 324.969 635.555 324.973M635.555 324.949C635.555 324.949 635.555 324.945 635.555 324.945 635.555 324.945 635.555 324.949 635.555 324.949M635.551 324.926C635.551 324.922 635.551 324.918 635.551 324.914 635.551 324.918 635.551 324.922 635.551 324.926M635.551 324.902C635.551 324.898 635.551 324.898 635.551 324.895 635.551 324.898 635.551 324.898 635.551 324.902M635.547 324.883C635.547 324.879 635.547 324.879 635.547 324.875 635.547 324.879 635.547 324.879 635.547 324.883M635.547 324.855C635.547 324.852 635.547 324.852 635.547 324.852 635.547 324.852 635.547 324.852 635.547 324.855M635.543 324.832C635.543 324.832 635.543 324.828 635.543 324.824 635.543 324.828 635.543 324.832 635.543 324.832M635.543 324.812C635.543 324.812 635.543 324.809 635.543 324.809 635.543 324.809 635.543 324.809 635.543 324.812M635.539 324.785C635.539 324.785 635.539 324.781 635.539 324.781 635.539 324.781 635.539 324.785 635.539 324.785M635.539 324.766C635.539 324.762 635.539 324.762 635.539 324.762 635.539 324.762 635.539 324.762 635.539 324.766M635.531 324.684C635.531 324.684 635.531 324.684 635.531 324.68 635.531 324.68 635.531 324.684 635.531 324.684M635.523 324.633C635.523 324.625 635.523 324.621 635.523 324.613 635.523 324.621 635.523 324.625 635.523 324.633M635.52 324.586C635.191 320.719 634.719 317.344 635.082 313.199 635.551 307.867 637.391 301.262 642.68 290.684 635.793 304.453 634.75 311.492 634.984 317.75 635.066 320.039 635.32 322.219 635.52 324.586M642.684 290.68C642.707 290.629 642.73 290.578 642.762 290.52 642.738 290.574 642.707 290.629 642.684 290.68M642.766 290.516C642.785 290.473 642.809 290.434 642.828 290.395 642.809 290.434 642.785 290.473 642.766 290.516M642.828 290.391C642.832 290.383 642.836 290.371 642.844 290.363 642.836 290.371 642.832 290.379 642.828 290.391M642.852 290.344C642.855 290.328 642.859 290.32 642.867 290.312 642.859 290.32 642.855 290.328 642.852 290.344M642.891 290.266C642.895 290.262 642.895 290.254 642.898 290.25 642.895 290.254 642.895 290.262 642.891 290.266M642.914 290.223C642.918 290.211 642.922 290.203 642.926 290.191 642.922 290.203 642.918 290.215 642.914 290.223M642.938 290.168C642.941 290.16 642.945 290.152 642.953 290.145 642.945 290.152 642.941 290.16 642.938 290.168M642.973 290.102C642.977 290.094 642.98 290.086 642.984 290.078 642.98 290.086 642.977 290.094 642.973 290.102M643 290.047C643 290.039 643.004 290.035 643.008 290.031 643.004 290.035 643.004 290.039 643 290.047M643.031 289.992C643.031 289.984 643.035 289.98 643.039 289.977 643.035 289.98 643.031 289.984 643.031 289.992M643.059 289.93C643.062 289.926 643.066 289.922 643.066 289.91 643.066 289.914 643.062 289.926 643.059 289.93M643.086 289.875C643.094 289.871 643.094 289.867 643.098 289.859 643.094 289.867 643.086 289.871 643.086 289.875M643.145 289.758C643.148 289.754 643.148 289.75 643.152 289.746 643.148 289.75 643.148 289.754 643.145 289.758M643.172 289.711C643.176 289.703 643.18 289.699 643.18 289.691 643.18 289.695 643.176 289.703 643.172 289.711M643.195 289.66C643.199 289.656 643.199 289.652 643.203 289.645 643.199 289.652 643.199 289.656 643.195 289.66M643.223 289.605C643.223 289.602 643.227 289.594 643.234 289.59 643.227 289.594 643.227 289.602 643.223 289.605M643.254 289.547C643.258 289.539 643.258 289.535 643.262 289.527 643.258 289.535 643.258 289.539 643.254 289.547M643.277 289.5C643.277 289.492 643.281 289.484 643.285 289.477 643.281 289.484 643.281 289.492 643.277 289.5M643.305 289.449C643.309 289.441 643.309 289.438 643.312 289.43 643.312 289.438 643.309 289.445 643.305 289.449M643.328 289.398C643.332 289.391 643.336 289.383 643.34 289.371 643.336 289.383 643.332 289.391 643.328 289.398M643.359 289.336C643.359 289.328 643.363 289.32 643.367 289.316 643.363 289.32 643.359 289.328 643.359 289.336M643.383 289.289C643.387 289.277 643.391 289.27 643.395 289.266 643.391 289.27 643.387 289.277 643.383 289.289M643.406 289.238C643.41 289.23 643.414 289.223 643.418 289.219 643.414 289.223 643.41 289.23 643.406 289.238M643.434 289.184C643.434 289.18 643.438 289.172 643.445 289.168 643.438 289.176 643.434 289.18 643.434 289.184M643.465 289.121C643.469 289.113 643.473 289.109 643.473 289.105 643.473 289.109 643.469 289.113 643.465 289.121M643.488 289.07C643.492 289.062 643.496 289.055 643.5 289.051 643.496 289.059 643.492 289.062 643.488 289.07M643.516 289.027C643.52 289.016 643.523 289.012 643.527 289 643.523 289.012 643.52 289.016 643.516 289.027M643.535 288.977C643.539 288.969 643.543 288.961 643.547 288.953 643.543 288.961 643.539 288.969 643.535 288.977M643.57 288.906C643.574 288.902 643.574 288.895 643.578 288.887 643.574 288.895 643.57 288.902 643.57 288.906M643.594 288.859C643.598 288.852 643.602 288.844 643.605 288.836 643.602 288.844 643.598 288.852 643.594 288.859M643.617 288.812C643.621 288.805 643.625 288.797 643.629 288.785 643.625 288.797 643.621 288.805 643.617 288.812M643.641 288.762C643.645 288.754 643.648 288.746 643.656 288.738 643.648 288.746 643.645 288.754 643.641 288.762M643.676 288.695C643.68 288.688 643.68 288.68 643.684 288.672 643.684 288.68 643.68 288.688 643.676 288.695M643.695 288.645C643.699 288.637 643.703 288.629 643.707 288.621 643.703 288.629 643.699 288.637 643.695 288.645M643.719 288.598C643.723 288.59 643.73 288.578 643.734 288.57 643.73 288.578 643.723 288.59 643.719 288.598M643.746 288.547C643.75 288.543 643.754 288.531 643.758 288.527 643.754 288.531 643.75 288.539 643.746 288.547M643.777 288.48C643.777 288.473 643.781 288.469 643.785 288.465 643.781 288.469 643.781 288.473 643.777 288.48M643.805 288.43C643.805 288.422 643.809 288.418 643.812 288.41 643.809 288.418 643.805 288.422 643.805 288.43M643.824 288.383C643.828 288.375 643.832 288.367 643.836 288.359 643.832 288.367 643.828 288.375 643.824 288.383M643.848 288.332C643.852 288.324 643.855 288.316 643.855 288.312 643.855 288.316 643.852 288.324 643.848 288.332M643.883 288.266C643.883 288.258 643.887 288.254 643.891 288.25 643.887 288.254 643.883 288.258 643.883 288.266M643.902 288.215C643.906 288.207 643.91 288.203 643.914 288.195 643.91 288.203 643.906 288.207 643.902 288.215M643.926 288.168C643.93 288.164 643.934 288.152 643.934 288.145 643.934 288.152 643.93 288.164 643.926 288.168M643.953 288.117C643.957 288.109 643.957 288.105 643.961 288.098 643.957 288.105 643.957 288.109 643.953 288.117M643.98 288.051C643.984 288.047 643.984 288.043 643.984 288.043 643.984 288.043 643.984 288.047 643.98 288.051M644.004 288C644.012 287.992 644.012 287.988 644.016 287.984 644.012 287.988 644.012 287.996 644.004 288M644.031 287.945C644.035 287.941 644.035 287.938 644.039 287.934 644.035 287.938 644.035 287.941 644.031 287.945M644.055 287.898C644.055 287.895 644.059 287.891 644.059 287.887 644.059 287.891 644.055 287.895 644.055 287.898M644.109 287.781C644.109 287.781 644.109 287.777 644.113 287.773 644.109 287.777 644.109 287.781 644.109 287.781M644.133 287.73C644.133 287.727 644.133 287.723 644.137 287.723 644.133 287.727 644.133 287.727 644.133 287.73M644.16 287.68C644.16 287.68 644.16 287.676 644.164 287.672 644.16 287.676 644.16 287.68 644.16 287.68M644.234 287.516C644.234 287.512 644.234 287.512 644.238 287.508 644.234 287.512 644.234 287.512 644.234 287.516M653.004 249.469C653.676 247.129 655.152 245.07 657.227 243.711 659.508 242.219 661.754 241.598 663.883 241.598 664.203 241.598 664.52 241.617 664.836 241.641 664.836 241.645 664.84 241.645 664.84 241.645 664.523 241.621 664.203 241.602 663.879 241.602 661.754 241.602 659.508 242.223 657.227 243.711 656.805 243.988 656.418 244.305 656.047 244.629L656.047 244.633C654.621 245.91 653.578 247.559 653.031 249.383 653.02 249.41 653.012 249.441 653.004 249.469" fill="#CB905F"/><path d="M653.031 249.383C653.578 247.559 654.621 245.91 656.047 244.633L656.043 244.633C655.328 245.277 654.715 246.012 654.211 246.812L654.074 247.02C653.957 247.219 653.852 247.426 653.742 247.633 653.676 247.766 653.609 247.898 653.551 248.031 653.461 248.211 653.383 248.398 653.312 248.586 653.242 248.758 653.176 248.938 653.117 249.117 653.09 249.203 653.062 249.293 653.031 249.383" fill="#D19C76"/><path d="M758.805 304.234 758.723 304.035 776.164 291.742 775.074 292.77 758.805 304.234" fill="#DDC7AF"/><path d="M748.074 318.152 745.602 314.859 758.129 302.766 758.688 304.062 758.723 304.035 758.805 304.234 775.074 292.77 748.074 318.152" fill="#CB905F"/><path d="M748.082 318.16 745.602 314.859 748.074 318.152 775.074 292.77 776.164 291.742 776.285 291.66 748.082 318.16" fill="#CB905F"/><path d="M745.539 276.523 744.59 274.277 744.598 274.273 745.551 276.457 753.262 271.082 745.539 276.523" fill="#DDC7AF"/><path d="M725.039 298.695 722.965 295.176 723.012 295.133 723 295.145 723.008 295.137 744.59 274.277 745.539 276.523 753.262 271.082 755.555 269.477 725.039 298.695" fill="#CB905F"/><path d="M725.039 298.695 722.965 295.176 725.039 298.695M722.961 295.176 744.598 274.273 744.59 274.277 723.008 295.137 723 295.145 722.961 295.176" fill="#CB905F"/><path d="M725.953 253.258 725.918 253.168 740.141 243.145 739.691 243.574 725.953 253.258M725.535 252.262 724.738 250.375 724.773 250.348 725.535 252.262" fill="#DDC7AF"/><path d="M669.062 310.773 665.73 308.895C665.879 307.812 666.086 306.715 666.32 305.664L671.539 300.168 695.129 278.742 696.711 277.258 696.719 277.266 724.738 250.375 725.535 252.262 725.902 253.18 725.918 253.168 725.953 253.258 739.691 243.574 702.742 279.047 702.488 279.285 702.488 279.281 700.902 280.762 677.316 302.191 671.98 307.809 671.09 308.648 670.18 309.5C670.18 309.5 670.18 309.52 670.176 309.559 670.172 309.59 670.168 309.633 670.16 309.688L669.062 310.773" fill="#CB905F"/><path d="M670.16 309.688C670.168 309.633 670.172 309.59 670.176 309.559 670.172 309.59 670.168 309.633 670.16 309.688M671.09 308.648 671.98 307.809 671.09 308.648M702.488 279.285 702.488 279.281 702.488 279.285M702.742 279.047 739.691 243.574 740.141 243.145 740.25 243.066 702.742 279.047" fill="#CB905F"/><path d="M755.414 263.82 755.465 263.777 778.145 247.789 777.855 248.07 755.414 263.82M789.141 240.039 790.648 238.98C791.293 239.32 791.816 239.559 792.371 239.91 791.992 239.879 791.617 239.863 791.234 239.863 790.531 239.863 789.828 239.922 789.141 240.039" fill="#DDC7AF"/><path d="M755.465 263.777 770.504 249.238C770.812 248.938 771.105 248.621 771.379 248.297 772.281 247.215 772.973 246.004 773.453 244.727L777.055 241.254C779.43 238.961 782.418 237.824 785.441 237.824 787.176 237.824 788.926 238.199 790.574 238.938 790.598 238.953 790.625 238.969 790.648 238.98L789.141 240.039C786.848 240.441 784.648 241.504 782.82 243.27L778.145 247.789 755.465 263.777" fill="#CB905F"/><path d="M771.379 248.297C772.277 247.219 772.961 246.012 773.434 244.738L773.453 244.727C772.973 246.004 772.281 247.215 771.379 248.297M777.855 248.07 778.145 247.789 782.82 243.27C784.648 241.504 786.848 240.441 789.141 240.039 789.828 239.922 790.531 239.863 791.234 239.863 791.617 239.863 791.992 239.879 792.371 239.91 792.391 239.922 792.41 239.938 792.426 239.949 792.207 239.93 791.992 239.918 791.781 239.918 790.848 239.918 789.949 240.086 788.895 240.121 786.816 240.719 784.586 241.578 782.828 243.277L777.879 248.051 777.855 248.07" fill="#CB905F"/><path d="M762.453 227.535C762.391 227.531 762.332 227.527 762.27 227.523L762.398 227.434 762.504 227.5 762.453 227.535" fill="#DDC7AF"/><path d="M762.582 227.543C762.539 227.543 762.496 227.539 762.453 227.535L762.504 227.5 762.582 227.543" fill="#CB905F"/><path d="M762.602 227.559C762.484 227.547 762.371 227.543 762.254 227.535L762.27 227.523C762.332 227.527 762.391 227.531 762.453 227.535 762.496 227.539 762.539 227.543 762.582 227.543L762.602 227.559" fill="#CB905F"/><path d="M798.344 307.453 799.887 305.961 807.934 300.289C808.105 300.293 808.285 300.301 808.461 300.316L798.344 307.453" fill="#DDC7AF"/><path d="M799.887 305.961 805.406 300.629C806.215 300.449 807.004 300.289 807.852 300.289 807.875 300.289 807.902 300.289 807.934 300.289L799.887 305.961" fill="#CB905F"/><path d="M768.352 292.898 770.277 291.039 802.285 268.484C802.449 268.527 802.617 268.578 802.785 268.633L799.238 271.133C797.793 271.762 796.438 272.656 795.25 273.805L794.664 274.355 768.352 292.898" fill="#DDC7AF"/><path d="M770.277 291.039 792.387 269.676C794.391 268.574 796.621 268.016 798.832 268.016 799.996 268.016 801.16 268.172 802.285 268.484L770.277 291.039" fill="#CB905F"/><path d="M794.664 274.355 795.25 273.805C796.438 272.656 797.793 271.762 799.238 271.133L799.086 271.238 794.781 274.273 794.664 274.355" fill="#CB905F"/><path d="M731.066 244.32 732.688 242.762 757.094 225.559C757.25 225.586 757.41 225.613 757.566 225.641L731.066 244.32" fill="#DDC7AF"/><path d="M732.688 242.762 747.035 228.988C749.387 226.727 752.32 225.43 755.402 225.43 755.961 225.43 756.527 225.473 757.094 225.559L732.688 242.762" fill="#CB905F"/></svg>